<?xml version="1.0" encoding="utf-8"?>
<!-- Generator: Adobe Illustrator 19.0.0, SVG Export Plug-In . SVG Version: 6.00 Build 0)  -->
<svg version="1.1" id="layer1" xmlns="http://www.w3.org/2000/svg" xmlns:xlink="http://www.w3.org/1999/xlink" x="0px" y="0px"
	 viewBox="60 200 480 400" style="enable-background:new 60 200 480 400;" xml:space="preserve">
<style type="text/css">
	.st0{fill:none;stroke:#D9D9D9;stroke-width:0.72;stroke-linejoin:round;stroke-miterlimit:10;}
	
		.st1{clip-path:url(#SVGID_2_);fill:none;stroke:#5993C9;stroke-width:2.16;stroke-linecap:round;stroke-linejoin:round;stroke-miterlimit:10;}
	.st2{fill:#595A59;}
</style>
<g>
	<g>
		<path class="st0" d="M297.7,396.3l24.5,17.8l-9.4,28.7h-30.2l-9.4-28.7L297.7,396.3 M297.7,370.6l48.8,35.5l-18.6,57.5h-60.5
			l-18.6-57.5L297.7,370.6 M297.7,345l73.3,53.2l-28,86.3h-90.7l-28-86.3L297.7,345 M297.7,319.2l97.8,71l-37.3,115h-121l-37.3-115
			L297.7,319.2 M297.7,293.5l122.2,88.8l-46.7,143.6h-151l-46.7-143.6L297.7,293.5 M297.7,267.8l146.6,106.6l-56,172.4H207.1
			l-56-172.4L297.7,267.8 M297.7,242.1l171.1,124.3l-65.4,201.1H192l-65.4-201.1L297.7,242.1"/>
	</g>
	<g>
		<defs>
			<polygon id="SVGID_1_" points="117.7,602.6 478.3,602.6 478.3,242 117.7,242 117.7,602.6 			"/>
		</defs>
		<clipPath id="SVGID_2_">
			<use xlink:href="#SVGID_1_"  style="overflow:visible;"/>
		</clipPath>
		<polyline class="st1" points="224.4,398.1 297.7,257.5 454.2,371.1 382.3,538.4 261.5,471.9 224.4,398.1 		"/>
	</g>
	<g id="XMLID_5_">
		<g id="XMLID_66_">
			<path id="XMLID_67_" class="st2" d="M283.9,227.9c0,0,0,0.1,0,0.1s-0.1,0.1-0.1,0.1s-0.1,0-0.2,0.1s-0.2,0-0.4,0
				c-0.2,0-0.3,0-0.4,0s-0.2,0-0.2-0.1s-0.1,0-0.1-0.1s0-0.1,0-0.1v-5h-5.2v5c0,0,0,0.1,0,0.1s-0.1,0.1-0.1,0.1s-0.1,0-0.2,0.1
				s-0.2,0-0.4,0c-0.1,0-0.3,0-0.4,0s-0.2,0-0.2-0.1s-0.1,0-0.1-0.1s0-0.1,0-0.1V217c0,0,0-0.1,0-0.1s0.1-0.1,0.1-0.1s0.1,0,0.2-0.1
				s0.2,0,0.4,0c0.1,0,0.3,0,0.4,0s0.2,0,0.2,0.1s0.1,0,0.1,0.1s0,0.1,0,0.1v4.6h5.2V217c0,0,0-0.1,0-0.1s0.1-0.1,0.1-0.1
				s0.1,0,0.2-0.1s0.2,0,0.4,0c0.1,0,0.3,0,0.4,0s0.2,0,0.2,0.1s0.1,0,0.1,0.1s0,0.1,0,0.1V227.9z"/>
			<path id="XMLID_69_" class="st2" d="M292.7,227.9c0,0.1,0,0.1-0.1,0.2s-0.1,0.1-0.2,0.1s-0.2,0-0.4,0c-0.2,0-0.3,0-0.4,0
				s-0.2,0-0.2-0.1s-0.1-0.1-0.1-0.2v-0.8c-0.3,0.4-0.7,0.7-1.2,0.9s-0.9,0.3-1.3,0.3c-0.4,0-0.8-0.1-1.1-0.2s-0.6-0.3-0.9-0.5
				s-0.4-0.5-0.6-0.8s-0.2-0.6-0.2-1c0-0.4,0.1-0.8,0.3-1.2s0.4-0.6,0.8-0.8s0.8-0.4,1.2-0.5s1-0.2,1.7-0.2h1.1v-0.6
				c0-0.3,0-0.6-0.1-0.8s-0.2-0.4-0.3-0.6s-0.3-0.3-0.6-0.4s-0.5-0.1-0.8-0.1c-0.4,0-0.7,0-1,0.1s-0.5,0.2-0.7,0.3s-0.4,0.2-0.5,0.3
				s-0.3,0.1-0.3,0.1c0,0-0.1,0-0.1,0s-0.1-0.1-0.1-0.1s0-0.1-0.1-0.2s0-0.2,0-0.2c0-0.1,0-0.3,0-0.3s0.1-0.2,0.1-0.2
				s0.2-0.2,0.4-0.3s0.4-0.2,0.7-0.3s0.5-0.2,0.8-0.2s0.6-0.1,0.9-0.1c0.6,0,1.1,0.1,1.5,0.2s0.7,0.3,1,0.6s0.4,0.6,0.5,0.9
				s0.2,0.8,0.2,1.3V227.9z M291.3,224.3H290c-0.4,0-0.7,0-1,0.1s-0.5,0.2-0.7,0.3s-0.3,0.3-0.4,0.5s-0.1,0.4-0.1,0.6
				c0,0.4,0.1,0.7,0.4,1s0.6,0.4,1.1,0.4c0.4,0,0.7-0.1,1.1-0.3s0.7-0.5,1-0.9V224.3z"/>
			<path id="XMLID_72_" class="st2" d="M302.6,223.8c0,0.7-0.1,1.3-0.2,1.9c-0.2,0.6-0.4,1-0.7,1.4c-0.3,0.4-0.6,0.7-1.1,0.9
				s-0.9,0.3-1.5,0.3c-0.2,0-0.5,0-0.7-0.1s-0.4-0.1-0.6-0.2c-0.2-0.1-0.4-0.2-0.6-0.4s-0.4-0.3-0.6-0.5v4c0,0,0,0.1,0,0.1
				s-0.1,0.1-0.1,0.1s-0.1,0-0.2,0.1s-0.2,0-0.4,0c-0.1,0-0.3,0-0.4,0s-0.2,0-0.2-0.1s-0.1-0.1-0.1-0.1s0-0.1,0-0.1v-11
				c0-0.1,0-0.1,0-0.1s0.1-0.1,0.1-0.1s0.1,0,0.2,0s0.2,0,0.3,0c0.1,0,0.2,0,0.3,0s0.1,0,0.2,0s0.1,0.1,0.1,0.1s0,0.1,0,0.1v1.1
				c0.2-0.2,0.5-0.5,0.7-0.6s0.4-0.3,0.7-0.5s0.5-0.2,0.7-0.3c0.2-0.1,0.5-0.1,0.8-0.1c0.6,0,1.1,0.1,1.5,0.3s0.7,0.5,1,0.9
				c0.3,0.4,0.4,0.8,0.6,1.3S302.6,223.2,302.6,223.8z M301.1,224c0-0.4,0-0.8-0.1-1.2c-0.1-0.4-0.2-0.7-0.3-1s-0.4-0.5-0.6-0.7
				s-0.6-0.3-0.9-0.3c-0.2,0-0.4,0-0.6,0.1c-0.2,0.1-0.4,0.1-0.6,0.3c-0.2,0.1-0.4,0.3-0.6,0.5s-0.4,0.4-0.7,0.7v3.1
				c0.4,0.5,0.8,0.9,1.1,1.1c0.4,0.3,0.7,0.4,1.1,0.4c0.4,0,0.7-0.1,0.9-0.3c0.3-0.2,0.5-0.4,0.6-0.7c0.2-0.3,0.3-0.6,0.4-1
				S301.1,224.3,301.1,224z"/>
			<path id="XMLID_75_" class="st2" d="M312.1,223.8c0,0.7-0.1,1.3-0.2,1.9c-0.2,0.6-0.4,1-0.7,1.4c-0.3,0.4-0.6,0.7-1.1,0.9
				s-0.9,0.3-1.5,0.3c-0.2,0-0.5,0-0.7-0.1s-0.4-0.1-0.6-0.2s-0.4-0.2-0.6-0.4s-0.4-0.3-0.6-0.5v4c0,0,0,0.1,0,0.1s-0.1,0.1-0.1,0.1
				s-0.1,0-0.2,0.1s-0.2,0-0.4,0c-0.1,0-0.3,0-0.4,0s-0.2,0-0.2-0.1c-0.1,0-0.1-0.1-0.1-0.1s0-0.1,0-0.1v-11c0-0.1,0-0.1,0-0.1
				s0.1-0.1,0.1-0.1s0.1,0,0.2,0s0.2,0,0.3,0c0.1,0,0.2,0,0.3,0c0.1,0,0.1,0,0.2,0s0.1,0.1,0.1,0.1s0,0.1,0,0.1v1.1
				c0.2-0.2,0.5-0.5,0.7-0.6s0.4-0.3,0.7-0.5c0.2-0.1,0.5-0.2,0.7-0.3c0.2-0.1,0.5-0.1,0.8-0.1c0.6,0,1.1,0.1,1.5,0.3s0.7,0.5,1,0.9
				c0.3,0.4,0.4,0.8,0.6,1.3S312.1,223.2,312.1,223.8z M310.6,224c0-0.4,0-0.8-0.1-1.2s-0.2-0.7-0.3-1s-0.4-0.5-0.6-0.7
				c-0.3-0.2-0.6-0.3-0.9-0.3c-0.2,0-0.4,0-0.6,0.1s-0.4,0.1-0.6,0.3s-0.4,0.3-0.6,0.5s-0.4,0.4-0.7,0.7v3.1
				c0.4,0.5,0.8,0.9,1.1,1.1s0.7,0.4,1.1,0.4c0.4,0,0.7-0.1,0.9-0.3c0.3-0.2,0.5-0.4,0.6-0.7c0.2-0.3,0.3-0.6,0.4-1
				C310.6,224.7,310.6,224.3,310.6,224z"/>
			<path id="XMLID_78_" class="st2" d="M317.9,228.1l-1.1,2.9c0,0.1-0.1,0.2-0.3,0.2s-0.4,0.1-0.7,0.1c-0.2,0-0.3,0-0.4,0
				s-0.2,0-0.2-0.1c-0.1,0-0.1-0.1-0.1-0.1s0-0.1,0-0.2l1.1-2.8c-0.1,0-0.1-0.1-0.1-0.1s-0.1-0.1-0.1-0.2l-2.8-7.6
				c0-0.1-0.1-0.2-0.1-0.3s0-0.1,0.1-0.2s0.1-0.1,0.2-0.1s0.2,0,0.4,0s0.3,0,0.4,0s0.2,0,0.2,0s0.1,0.1,0.1,0.1c0,0,0.1,0.1,0.1,0.2
				l2.3,6.3h0l2.2-6.4c0-0.1,0.1-0.2,0.1-0.2s0.1-0.1,0.2-0.1s0.2,0,0.4,0c0.2,0,0.3,0,0.4,0s0.2,0,0.2,0.1c0,0,0.1,0.1,0.1,0.2
				s0,0.2-0.1,0.3L317.9,228.1z"/>
		</g>
	</g>
	<g id="XMLID_4_">
		<g id="XMLID_46_">
			<path id="XMLID_47_" class="st2" d="M484.7,369.1c0,0,0,0.1,0,0.1s-0.1,0.1-0.1,0.1s-0.1,0-0.2,0.1s-0.2,0-0.4,0
				c-0.2,0-0.3,0-0.4,0c-0.1,0-0.2,0-0.2-0.1s-0.1-0.1-0.1-0.1s-0.1-0.1-0.1-0.2l-1-2.7c-0.1-0.3-0.3-0.6-0.4-0.8
				c-0.1-0.3-0.3-0.5-0.5-0.7s-0.4-0.3-0.6-0.4s-0.5-0.2-0.9-0.2h-1v4.8c0,0,0,0.1,0,0.1c0,0-0.1,0.1-0.1,0.1c-0.1,0-0.1,0-0.2,0.1
				c-0.1,0-0.2,0-0.4,0s-0.3,0-0.4,0c-0.1,0-0.2,0-0.2-0.1s-0.1,0-0.1-0.1s0-0.1,0-0.1v-10.5c0-0.2,0.1-0.4,0.2-0.5s0.2-0.1,0.4-0.1
				h2.4c0.3,0,0.5,0,0.7,0s0.4,0,0.5,0c0.4,0.1,0.8,0.2,1.2,0.4c0.3,0.2,0.6,0.4,0.8,0.6s0.4,0.5,0.5,0.9c0.1,0.3,0.2,0.7,0.2,1.1
				c0,0.4-0.1,0.7-0.2,1s-0.3,0.6-0.4,0.8s-0.4,0.4-0.7,0.6s-0.6,0.3-0.9,0.4c0.2,0.1,0.4,0.2,0.5,0.3s0.3,0.3,0.4,0.5
				c0.1,0.2,0.3,0.4,0.4,0.6s0.2,0.5,0.4,0.8l1,2.5c0.1,0.2,0.1,0.4,0.2,0.4S484.7,369.1,484.7,369.1z M482.4,361.1
				c0-0.4-0.1-0.8-0.3-1.1s-0.5-0.5-1-0.7c-0.1,0-0.3-0.1-0.5-0.1c-0.2,0-0.4,0-0.7,0h-1.3v3.8h1.5c0.4,0,0.7,0,1-0.1
				c0.3-0.1,0.5-0.2,0.7-0.4s0.3-0.4,0.4-0.6S482.4,361.4,482.4,361.1z"/>
			<path id="XMLID_50_" class="st2" d="M493.5,364.8c0,0.2-0.1,0.4-0.2,0.5c-0.1,0.1-0.2,0.1-0.4,0.1h-5.2c0,0.4,0,0.8,0.1,1.2
				c0.1,0.4,0.2,0.7,0.4,0.9s0.5,0.4,0.8,0.6c0.3,0.1,0.7,0.2,1.2,0.2c0.4,0,0.7,0,1-0.1c0.3-0.1,0.5-0.1,0.8-0.2s0.4-0.1,0.5-0.2
				c0.1-0.1,0.2-0.1,0.3-0.1c0,0,0.1,0,0.1,0s0.1,0.1,0.1,0.1s0,0.1,0,0.2s0,0.2,0,0.3c0,0.1,0,0.1,0,0.2s0,0.1,0,0.1
				c0,0,0,0.1,0,0.1s0,0.1-0.1,0.1c0,0-0.1,0.1-0.3,0.2s-0.4,0.1-0.6,0.2s-0.5,0.1-0.9,0.2c-0.3,0.1-0.7,0.1-1.1,0.1
				c-0.7,0-1.2-0.1-1.7-0.3s-0.9-0.5-1.2-0.8s-0.6-0.8-0.8-1.3s-0.3-1.2-0.3-1.9c0-0.7,0.1-1.3,0.3-1.8s0.4-1,0.8-1.4
				c0.3-0.4,0.7-0.7,1.2-0.9s1-0.3,1.6-0.3c0.6,0,1.1,0.1,1.6,0.3c0.4,0.2,0.8,0.5,1.1,0.8s0.5,0.7,0.6,1.2c0.1,0.5,0.2,0.9,0.2,1.5
				V364.8z M492,364.4c0-0.8-0.2-1.4-0.5-1.8s-0.9-0.7-1.6-0.7c-0.4,0-0.7,0.1-0.9,0.2s-0.5,0.3-0.7,0.5c-0.2,0.2-0.3,0.5-0.4,0.8
				s-0.2,0.6-0.2,0.9H492z"/>
			<path id="XMLID_53_" class="st2" d="M497.1,369.1c0,0,0,0.1,0,0.1s-0.1,0.1-0.1,0.1s-0.1,0-0.2,0.1s-0.2,0-0.4,0
				c-0.1,0-0.3,0-0.4,0s-0.2,0-0.2-0.1c-0.1,0-0.1-0.1-0.1-0.1s0-0.1,0-0.1v-11.7c0,0,0-0.1,0-0.1s0.1-0.1,0.1-0.1
				c0.1,0,0.1,0,0.2-0.1s0.2,0,0.4,0c0.1,0,0.3,0,0.4,0s0.2,0,0.2,0.1s0.1,0.1,0.1,0.1s0,0.1,0,0.1V369.1z"/>
			<path id="XMLID_55_" class="st2" d="M505.8,369.1c0,0.1,0,0.1-0.1,0.2s-0.1,0.1-0.2,0.1s-0.2,0-0.4,0c-0.2,0-0.3,0-0.4,0
				s-0.2,0-0.2-0.1s-0.1-0.1-0.1-0.2v-0.8c-0.3,0.4-0.7,0.7-1.2,0.9c-0.4,0.2-0.9,0.3-1.3,0.3c-0.4,0-0.8-0.1-1.1-0.2
				c-0.3-0.1-0.6-0.3-0.9-0.5c-0.2-0.2-0.4-0.5-0.6-0.8c-0.1-0.3-0.2-0.6-0.2-1c0-0.4,0.1-0.8,0.3-1.2s0.4-0.6,0.8-0.8
				s0.8-0.4,1.2-0.5s1-0.2,1.7-0.2h1.1v-0.6c0-0.3,0-0.6-0.1-0.8s-0.2-0.4-0.3-0.6s-0.3-0.3-0.6-0.4s-0.5-0.1-0.8-0.1
				c-0.4,0-0.7,0-1,0.1c-0.3,0.1-0.5,0.2-0.7,0.3s-0.4,0.2-0.5,0.3c-0.1,0.1-0.3,0.1-0.3,0.1c0,0-0.1,0-0.1,0s-0.1-0.1-0.1-0.1
				c0,0,0-0.1-0.1-0.2s0-0.2,0-0.2c0-0.1,0-0.3,0-0.3c0-0.1,0.1-0.2,0.1-0.2c0.1-0.1,0.2-0.2,0.4-0.3s0.4-0.2,0.7-0.3
				s0.5-0.2,0.8-0.2s0.6-0.1,0.9-0.1c0.6,0,1.1,0.1,1.5,0.2s0.7,0.3,1,0.6s0.4,0.6,0.5,0.9s0.2,0.8,0.2,1.3V369.1z M504.4,365.5
				h-1.2c-0.4,0-0.7,0-1,0.1s-0.5,0.2-0.7,0.3s-0.3,0.3-0.4,0.5s-0.1,0.4-0.1,0.6c0,0.4,0.1,0.7,0.4,1c0.3,0.2,0.6,0.4,1.1,0.4
				c0.4,0,0.7-0.1,1.1-0.3c0.3-0.2,0.7-0.5,1-0.9V365.5z"/>
			<path id="XMLID_58_" class="st2" d="M514.4,369c0,0.1,0.1,0.2,0.1,0.2s0,0.1-0.1,0.1c-0.1,0-0.1,0.1-0.3,0.1c-0.1,0-0.3,0-0.4,0
				c-0.2,0-0.3,0-0.4,0s-0.2,0-0.2,0c-0.1,0-0.1,0-0.1-0.1s-0.1-0.1-0.1-0.1l-1.9-3.1l-1.9,3.1c0,0-0.1,0.1-0.1,0.1
				s-0.1,0.1-0.1,0.1c-0.1,0-0.1,0-0.2,0s-0.2,0-0.4,0c-0.2,0-0.3,0-0.4,0s-0.2,0-0.2-0.1c-0.1,0-0.1-0.1-0.1-0.1
				c0-0.1,0-0.1,0.1-0.2l2.5-3.9l-2.3-3.7c0-0.1-0.1-0.2-0.1-0.2c0-0.1,0-0.1,0.1-0.1s0.1-0.1,0.3-0.1c0.1,0,0.3,0,0.5,0
				c0.2,0,0.3,0,0.4,0c0.1,0,0.2,0,0.2,0s0.1,0,0.1,0.1s0.1,0.1,0.1,0.1l1.8,2.9l1.8-2.9c0,0,0-0.1,0.1-0.1s0.1-0.1,0.1-0.1
				s0.1,0,0.2,0s0.2,0,0.4,0c0.2,0,0.3,0,0.4,0s0.2,0,0.2,0.1s0.1,0.1,0.1,0.1s0,0.1-0.1,0.2l-2.3,3.7L514.4,369z"/>
			<path id="XMLID_60_" class="st2" d="M523,364.8c0,0.2-0.1,0.4-0.2,0.5c-0.1,0.1-0.2,0.1-0.4,0.1h-5.2c0,0.4,0,0.8,0.1,1.2
				c0.1,0.4,0.2,0.7,0.4,0.9s0.5,0.4,0.8,0.6c0.3,0.1,0.7,0.2,1.2,0.2c0.4,0,0.7,0,1-0.1c0.3-0.1,0.5-0.1,0.8-0.2s0.4-0.1,0.5-0.2
				c0.1-0.1,0.2-0.1,0.3-0.1c0,0,0.1,0,0.1,0s0.1,0.1,0.1,0.1s0,0.1,0,0.2s0,0.2,0,0.3c0,0.1,0,0.1,0,0.2s0,0.1,0,0.1
				c0,0,0,0.1,0,0.1s0,0.1-0.1,0.1c0,0-0.1,0.1-0.3,0.2s-0.4,0.1-0.6,0.2s-0.5,0.1-0.9,0.2c-0.3,0.1-0.7,0.1-1.1,0.1
				c-0.7,0-1.2-0.1-1.7-0.3s-0.9-0.5-1.2-0.8s-0.6-0.8-0.8-1.3s-0.3-1.2-0.3-1.9c0-0.7,0.1-1.3,0.3-1.8s0.4-1,0.8-1.4
				c0.3-0.4,0.7-0.7,1.2-0.9s1-0.3,1.6-0.3c0.6,0,1.1,0.1,1.6,0.3c0.4,0.2,0.8,0.5,1.1,0.8s0.5,0.7,0.6,1.2c0.1,0.5,0.2,0.9,0.2,1.5
				V364.8z M521.5,364.4c0-0.8-0.2-1.4-0.5-1.8s-0.9-0.7-1.6-0.7c-0.4,0-0.7,0.1-0.9,0.2s-0.5,0.3-0.7,0.5c-0.2,0.2-0.3,0.5-0.4,0.8
				s-0.2,0.6-0.2,0.9H521.5z"/>
			<path id="XMLID_63_" class="st2" d="M532,369.1c0,0,0,0.1,0,0.1s-0.1,0.1-0.1,0.1s-0.1,0-0.2,0s-0.2,0-0.3,0c-0.1,0-0.2,0-0.3,0
				s-0.1,0-0.2,0s-0.1,0-0.1-0.1s0-0.1,0-0.1v-1c-0.4,0.5-0.8,0.8-1.3,1.1c-0.4,0.3-0.9,0.4-1.5,0.4c-0.6,0-1.1-0.1-1.5-0.3
				s-0.7-0.5-1-0.9c-0.3-0.4-0.4-0.8-0.6-1.4s-0.2-1.1-0.2-1.6c0-0.7,0.1-1.3,0.2-1.8s0.4-1,0.7-1.4s0.6-0.7,1.1-0.9
				s0.9-0.3,1.5-0.3c0.5,0,0.9,0.1,1.3,0.3s0.8,0.5,1.1,0.9v-4.6c0,0,0-0.1,0-0.1c0,0,0.1-0.1,0.1-0.1s0.1,0,0.2-0.1s0.2,0,0.3,0
				c0.1,0,0.3,0,0.4,0s0.2,0,0.2,0.1s0.1,0,0.1,0.1c0,0,0,0.1,0,0.1V369.1z M530.5,363.6c-0.4-0.5-0.8-0.9-1.1-1.1s-0.7-0.4-1.1-0.4
				c-0.4,0-0.7,0.1-0.9,0.3s-0.5,0.4-0.6,0.7c-0.2,0.3-0.3,0.6-0.4,1c-0.1,0.4-0.1,0.7-0.1,1.1c0,0.4,0,0.8,0.1,1.2
				c0.1,0.4,0.2,0.7,0.3,1s0.4,0.5,0.6,0.7s0.6,0.3,0.9,0.3c0.2,0,0.4,0,0.6-0.1s0.4-0.1,0.5-0.3s0.4-0.3,0.6-0.5s0.4-0.4,0.7-0.7
				V363.6z"/>
		</g>
	</g>
	<g id="XMLID_3_">
		<g id="XMLID_36_">
			<path id="XMLID_37_" class="st2" d="M416.8,576.9c0,0.1,0,0.2,0,0.2s0,0.1,0,0.2c0,0.1,0,0.1-0.1,0.1s-0.1,0.1-0.1,0.1
				s-0.2,0.1-0.4,0.3s-0.4,0.2-0.7,0.4c-0.3,0.1-0.6,0.2-1,0.3c-0.4,0.1-0.8,0.1-1.2,0.1c-0.7,0-1.4-0.1-2-0.4s-1.1-0.6-1.5-1.1
				c-0.4-0.5-0.7-1.1-1-1.8c-0.2-0.7-0.3-1.5-0.3-2.4c0-0.9,0.1-1.8,0.4-2.5s0.6-1.4,1-1.9s1-0.9,1.6-1.2s1.3-0.4,2-0.4
				c0.3,0,0.6,0,1,0.1c0.3,0.1,0.6,0.1,0.9,0.2s0.5,0.2,0.7,0.3s0.3,0.2,0.4,0.3c0.1,0.1,0.1,0.1,0.2,0.2s0,0.1,0.1,0.1
				c0,0.1,0,0.1,0,0.2c0,0.1,0,0.2,0,0.3c0,0.1,0,0.2,0,0.3s0,0.2-0.1,0.2c0,0.1-0.1,0.1-0.1,0.1c0,0-0.1,0-0.1,0
				c-0.1,0-0.2-0.1-0.3-0.2c-0.1-0.1-0.3-0.2-0.6-0.4c-0.2-0.1-0.5-0.3-0.8-0.4c-0.3-0.1-0.7-0.2-1.2-0.2c-0.5,0-1,0.1-1.4,0.3
				c-0.4,0.2-0.8,0.5-1.1,0.9s-0.5,0.9-0.7,1.4s-0.2,1.2-0.2,1.9c0,0.7,0.1,1.4,0.2,1.9c0.2,0.6,0.4,1,0.7,1.4
				c0.3,0.4,0.6,0.7,1.1,0.8c0.4,0.2,0.9,0.3,1.4,0.3c0.5,0,0.8-0.1,1.2-0.2c0.3-0.1,0.6-0.2,0.9-0.4c0.2-0.1,0.4-0.3,0.6-0.4
				s0.3-0.2,0.4-0.2c0,0,0.1,0,0.1,0s0.1,0.1,0.1,0.1s0,0.1,0,0.2S416.8,576.8,416.8,576.9z"/>
			<path id="XMLID_39_" class="st2" d="M424.6,578.3c0,0.1,0,0.1-0.1,0.2s-0.1,0.1-0.2,0.1s-0.2,0-0.4,0c-0.2,0-0.3,0-0.4,0
				s-0.2,0-0.2-0.1s-0.1-0.1-0.1-0.2v-0.8c-0.3,0.4-0.7,0.7-1.2,0.9c-0.4,0.2-0.9,0.3-1.3,0.3c-0.4,0-0.8-0.1-1.1-0.2
				c-0.3-0.1-0.6-0.3-0.9-0.5c-0.2-0.2-0.4-0.5-0.6-0.8c-0.1-0.3-0.2-0.6-0.2-1c0-0.4,0.1-0.8,0.3-1.2s0.4-0.6,0.8-0.8
				s0.8-0.4,1.2-0.5c0.5-0.1,1-0.2,1.7-0.2h1.1V573c0-0.3,0-0.6-0.1-0.8s-0.2-0.4-0.3-0.6s-0.3-0.3-0.6-0.4
				c-0.2-0.1-0.5-0.1-0.8-0.1c-0.4,0-0.7,0-1,0.1c-0.3,0.1-0.5,0.2-0.7,0.3c-0.2,0.1-0.4,0.2-0.5,0.3c-0.1,0.1-0.3,0.1-0.3,0.1
				c0,0-0.1,0-0.1,0s-0.1-0.1-0.1-0.1c0,0,0-0.1-0.1-0.2c0-0.1,0-0.2,0-0.2c0-0.1,0-0.3,0-0.3c0-0.1,0.1-0.2,0.1-0.2
				c0.1-0.1,0.2-0.2,0.4-0.3s0.4-0.2,0.7-0.3s0.5-0.2,0.8-0.2s0.6-0.1,0.9-0.1c0.6,0,1.1,0.1,1.5,0.2s0.7,0.3,1,0.6
				c0.2,0.3,0.4,0.6,0.5,0.9s0.2,0.8,0.2,1.3V578.3z M423.1,574.7h-1.2c-0.4,0-0.7,0-1,0.1c-0.3,0.1-0.5,0.2-0.7,0.3
				c-0.2,0.1-0.3,0.3-0.4,0.5c-0.1,0.2-0.1,0.4-0.1,0.6c0,0.4,0.1,0.7,0.4,1c0.3,0.2,0.6,0.4,1.1,0.4c0.4,0,0.7-0.1,1.1-0.3
				c0.3-0.2,0.7-0.5,1-0.9V574.7z"/>
			<path id="XMLID_42_" class="st2" d="M428.7,578.3c0,0,0,0.1,0,0.1c0,0-0.1,0.1-0.1,0.1s-0.1,0-0.2,0.1s-0.2,0-0.4,0
				c-0.1,0-0.3,0-0.4,0s-0.2,0-0.2-0.1c-0.1,0-0.1-0.1-0.1-0.1c0,0,0-0.1,0-0.1v-11.7c0,0,0-0.1,0-0.1s0.1-0.1,0.1-0.1
				c0.1,0,0.1,0,0.2-0.1s0.2,0,0.4,0c0.1,0,0.3,0,0.4,0s0.2,0,0.2,0.1s0.1,0.1,0.1,0.1s0,0.1,0,0.1V578.3z"/>
			<path id="XMLID_44_" class="st2" d="M443,578.3c0,0,0,0.1,0,0.1c0,0-0.1,0.1-0.1,0.1s-0.1,0-0.2,0.1s-0.2,0-0.4,0
				c-0.1,0-0.3,0-0.4,0s-0.2,0-0.2-0.1c-0.1,0-0.1-0.1-0.1-0.1c0,0,0-0.1,0-0.1v-4.8c0-0.3,0-0.6-0.1-0.9s-0.2-0.5-0.3-0.7
				s-0.3-0.4-0.5-0.5s-0.4-0.2-0.7-0.2c-0.3,0-0.7,0.1-1,0.4c-0.3,0.3-0.7,0.6-1.1,1.1v5.5c0,0,0,0.1,0,0.1c0,0-0.1,0.1-0.1,0.1
				c-0.1,0-0.1,0-0.2,0.1s-0.2,0-0.4,0c-0.1,0-0.3,0-0.3,0c-0.1,0-0.2,0-0.2-0.1s-0.1-0.1-0.1-0.1c0,0,0-0.1,0-0.1v-4.8
				c0-0.3,0-0.6-0.1-0.9s-0.2-0.5-0.3-0.7s-0.3-0.4-0.5-0.5s-0.4-0.2-0.7-0.2c-0.3,0-0.7,0.1-1,0.4s-0.7,0.6-1.1,1.1v5.5
				c0,0,0,0.1,0,0.1c0,0-0.1,0.1-0.1,0.1s-0.1,0-0.2,0.1s-0.2,0-0.4,0c-0.1,0-0.3,0-0.4,0s-0.2,0-0.2-0.1c-0.1,0-0.1-0.1-0.1-0.1
				c0,0,0-0.1,0-0.1v-7.9c0,0,0-0.1,0-0.1s0.1-0.1,0.1-0.1c0.1,0,0.1,0,0.2-0.1c0.1,0,0.2,0,0.3,0c0.1,0,0.2,0,0.3,0
				c0.1,0,0.2,0,0.2,0.1c0,0,0.1,0.1,0.1,0.1s0,0.1,0,0.1v1c0.4-0.5,0.9-0.9,1.3-1.1c0.4-0.2,0.8-0.3,1.3-0.3c0.3,0,0.6,0,0.9,0.1
				s0.5,0.2,0.7,0.3s0.4,0.3,0.5,0.5s0.3,0.4,0.4,0.6c0.3-0.3,0.5-0.5,0.8-0.7c0.2-0.2,0.5-0.4,0.7-0.5c0.2-0.1,0.4-0.2,0.6-0.3
				c0.2-0.1,0.4-0.1,0.6-0.1c0.5,0,0.9,0.1,1.3,0.3c0.3,0.2,0.6,0.4,0.8,0.7s0.4,0.6,0.5,1.1s0.1,0.8,0.1,1.3V578.3z"/>
		</g>
	</g>
	<g id="XMLID_2_">
		<g id="XMLID_18_">
			<path id="XMLID_19_" class="st2" d="M140,578c0,0.1,0.1,0.2,0.1,0.3c0,0.1,0,0.1-0.1,0.2s-0.1,0.1-0.2,0.1s-0.3,0-0.4,0
				s-0.3,0-0.4,0c-0.1,0-0.2,0-0.2,0c-0.1,0-0.1,0-0.1-0.1s-0.1-0.1-0.1-0.1l-1-2.8h-4.7l-0.9,2.7c0,0.1,0,0.1-0.1,0.1
				c0,0-0.1,0.1-0.1,0.1c-0.1,0-0.1,0-0.2,0.1s-0.2,0-0.4,0c-0.2,0-0.3,0-0.4,0c-0.1,0-0.2,0-0.2-0.1s-0.1-0.1-0.1-0.2
				c0-0.1,0-0.2,0.1-0.3l3.8-10.6c0-0.1,0.1-0.1,0.1-0.2s0.1-0.1,0.2-0.1s0.2,0,0.3,0c0.1,0,0.3,0,0.4,0c0.2,0,0.3,0,0.5,0
				c0.1,0,0.2,0,0.3,0s0.1,0.1,0.2,0.1c0,0,0.1,0.1,0.1,0.2L140,578z M135.1,568.7L135.1,568.7l-2,5.7h4L135.1,568.7z"/>
			<path id="XMLID_22_" class="st2" d="M148.5,578.3c0,0,0,0.1,0,0.1c0,0-0.1,0.1-0.1,0.1s-0.1,0-0.2,0.1s-0.2,0-0.4,0
				c-0.1,0-0.3,0-0.4,0s-0.2,0-0.2-0.1s-0.1-0.1-0.1-0.1c0,0,0-0.1,0-0.1v-4.6c0-0.5,0-0.8-0.1-1.1s-0.2-0.5-0.3-0.7
				s-0.3-0.4-0.5-0.5s-0.5-0.2-0.7-0.2c-0.4,0-0.7,0.1-1.1,0.4s-0.7,0.6-1.1,1.1v5.5c0,0,0,0.1,0,0.1c0,0-0.1,0.1-0.1,0.1
				s-0.1,0-0.2,0.1s-0.2,0-0.4,0c-0.1,0-0.3,0-0.4,0s-0.2,0-0.2-0.1s-0.1-0.1-0.1-0.1c0,0,0-0.1,0-0.1v-7.9c0,0,0-0.1,0-0.1
				s0.1-0.1,0.1-0.1c0.1,0,0.1,0,0.2-0.1c0.1,0,0.2,0,0.3,0c0.1,0,0.2,0,0.3,0c0.1,0,0.2,0,0.2,0.1c0,0,0.1,0.1,0.1,0.1s0,0.1,0,0.1
				v1c0.4-0.5,0.9-0.9,1.3-1.1s0.9-0.3,1.3-0.3c0.5,0,1,0.1,1.3,0.3c0.4,0.2,0.7,0.4,0.9,0.7s0.4,0.6,0.5,1.1s0.1,0.9,0.1,1.4V578.3
				z"/>
			<path id="XMLID_24_" class="st2" d="M157.2,578.1c0,0.1,0.1,0.2,0.1,0.2s0,0.1-0.1,0.1s-0.1,0.1-0.3,0.1c-0.1,0-0.3,0-0.4,0
				c-0.2,0-0.3,0-0.4,0c-0.1,0-0.2,0-0.2,0c-0.1,0-0.1,0-0.1-0.1c0,0-0.1-0.1-0.1-0.1l-1.9-3.1l-1.9,3.1c0,0-0.1,0.1-0.1,0.1
				c0,0-0.1,0.1-0.1,0.1c-0.1,0-0.1,0-0.2,0c-0.1,0-0.2,0-0.4,0c-0.2,0-0.3,0-0.4,0c-0.1,0-0.2,0-0.2-0.1s-0.1-0.1-0.1-0.1
				s0-0.1,0.1-0.2l2.5-3.9l-2.3-3.7c0-0.1-0.1-0.2-0.1-0.2c0-0.1,0-0.1,0.1-0.1c0.1,0,0.1-0.1,0.3-0.1s0.3,0,0.5,0
				c0.2,0,0.3,0,0.4,0c0.1,0,0.2,0,0.2,0s0.1,0,0.1,0.1s0.1,0.1,0.1,0.1l1.8,2.9l1.8-2.9c0,0,0-0.1,0.1-0.1s0.1-0.1,0.1-0.1
				c0,0,0.1,0,0.2,0c0.1,0,0.2,0,0.4,0c0.2,0,0.3,0,0.4,0s0.2,0,0.2,0.1s0.1,0.1,0.1,0.1s0,0.1-0.1,0.2l-2.3,3.7L157.2,578.1z"/>
			<path id="XMLID_26_" class="st2" d="M160.6,567.7c0,0.3-0.1,0.6-0.2,0.7s-0.4,0.2-0.7,0.2c-0.3,0-0.6-0.1-0.7-0.2
				c-0.1-0.1-0.2-0.3-0.2-0.7c0-0.3,0.1-0.6,0.2-0.7s0.4-0.2,0.7-0.2c0.3,0,0.6,0.1,0.7,0.2S160.6,567.4,160.6,567.7z M160.4,578.3
				c0,0,0,0.1,0,0.1c0,0-0.1,0.1-0.1,0.1s-0.1,0-0.2,0.1s-0.2,0-0.4,0c-0.1,0-0.3,0-0.4,0s-0.2,0-0.2-0.1s-0.1-0.1-0.1-0.1
				c0,0,0-0.1,0-0.1v-7.9c0,0,0-0.1,0-0.1s0.1-0.1,0.1-0.1s0.1,0,0.2-0.1s0.2,0,0.4,0c0.1,0,0.3,0,0.4,0s0.2,0,0.2,0.1
				s0.1,0.1,0.1,0.1s0,0.1,0,0.1V578.3z"/>
			<path id="XMLID_29_" class="st2" d="M170.4,574.3c0,0.6-0.1,1.2-0.3,1.8s-0.4,1-0.8,1.4s-0.8,0.7-1.3,0.9
				c-0.5,0.2-1.1,0.3-1.8,0.3c-0.7,0-1.2-0.1-1.7-0.3s-0.9-0.5-1.2-0.8s-0.6-0.8-0.7-1.3s-0.2-1.1-0.2-1.8c0-0.6,0.1-1.2,0.3-1.8
				c0.2-0.5,0.4-1,0.8-1.4s0.8-0.7,1.3-0.9s1.1-0.3,1.8-0.3c0.7,0,1.2,0.1,1.7,0.3s0.9,0.5,1.2,0.8s0.6,0.8,0.7,1.3
				S170.4,573.6,170.4,574.3z M168.9,574.4c0-0.4,0-0.8-0.1-1.2c-0.1-0.4-0.2-0.7-0.4-1c-0.2-0.3-0.4-0.5-0.7-0.7
				c-0.3-0.2-0.7-0.3-1.2-0.3c-0.4,0-0.8,0.1-1.1,0.2c-0.3,0.2-0.6,0.4-0.8,0.6c-0.2,0.3-0.4,0.6-0.4,1c-0.1,0.4-0.1,0.8-0.1,1.2
				c0,0.4,0,0.8,0.1,1.2c0.1,0.4,0.2,0.7,0.4,1c0.2,0.3,0.4,0.5,0.7,0.7c0.3,0.2,0.7,0.3,1.2,0.3c0.4,0,0.8-0.1,1.1-0.2
				s0.6-0.4,0.8-0.6s0.3-0.6,0.4-1S168.9,574.8,168.9,574.4z"/>
			<path id="XMLID_32_" class="st2" d="M179.3,578.3c0,0,0,0.1,0,0.1c0,0-0.1,0.1-0.1,0.1s-0.1,0-0.2,0.1s-0.2,0-0.3,0
				c-0.1,0-0.2,0-0.3,0s-0.2,0-0.2-0.1s-0.1-0.1-0.1-0.1c0,0,0-0.1,0-0.1v-1c-0.5,0.5-0.9,0.9-1.3,1.1s-0.9,0.3-1.3,0.3
				c-0.5,0-1-0.1-1.3-0.3s-0.7-0.4-0.9-0.7s-0.4-0.7-0.5-1.1s-0.1-0.9-0.1-1.5v-4.8c0,0,0-0.1,0-0.1s0.1-0.1,0.1-0.1
				c0.1,0,0.1,0,0.2-0.1c0.1,0,0.2,0,0.4,0s0.3,0,0.4,0c0.1,0,0.2,0,0.2,0.1c0.1,0,0.1,0.1,0.1,0.1s0,0.1,0,0.1v4.6
				c0,0.5,0,0.8,0.1,1.1s0.2,0.5,0.3,0.7c0.1,0.2,0.3,0.3,0.5,0.5c0.2,0.1,0.5,0.2,0.7,0.2c0.4,0,0.7-0.1,1.1-0.4s0.7-0.6,1.1-1.1
				v-5.5c0,0,0-0.1,0-0.1s0.1-0.1,0.1-0.1c0.1,0,0.1,0,0.2-0.1c0.1,0,0.2,0,0.4,0c0.1,0,0.3,0,0.4,0c0.1,0,0.2,0,0.2,0.1
				c0.1,0,0.1,0.1,0.1,0.1s0,0.1,0,0.1V578.3z"/>
			<path id="XMLID_34_" class="st2" d="M187,576.2c0,0.4-0.1,0.8-0.2,1.1s-0.4,0.6-0.6,0.8s-0.6,0.4-1,0.5s-0.8,0.2-1.3,0.2
				c-0.3,0-0.5,0-0.8-0.1c-0.3,0-0.5-0.1-0.7-0.2c-0.2-0.1-0.4-0.1-0.5-0.2c-0.1-0.1-0.2-0.1-0.3-0.2s-0.1-0.1-0.1-0.2s0-0.2,0-0.4
				c0-0.1,0-0.2,0-0.3s0-0.1,0-0.2s0-0.1,0.1-0.1c0,0,0.1,0,0.1,0c0.1,0,0.2,0,0.3,0.1c0.1,0.1,0.3,0.2,0.5,0.3s0.4,0.2,0.7,0.3
				c0.3,0.1,0.5,0.1,0.9,0.1c0.2,0,0.5,0,0.7-0.1s0.4-0.1,0.5-0.2s0.3-0.2,0.3-0.4s0.1-0.3,0.1-0.6c0-0.2-0.1-0.4-0.2-0.6
				s-0.3-0.3-0.5-0.4s-0.4-0.2-0.6-0.3s-0.5-0.2-0.7-0.3s-0.5-0.2-0.7-0.3c-0.2-0.1-0.4-0.3-0.6-0.5s-0.3-0.4-0.5-0.7
				s-0.2-0.6-0.2-0.9c0-0.3,0.1-0.6,0.2-0.9s0.3-0.5,0.5-0.7c0.2-0.2,0.5-0.4,0.9-0.5s0.8-0.2,1.3-0.2c0.2,0,0.4,0,0.6,0.1
				s0.4,0.1,0.6,0.1s0.3,0.1,0.4,0.2c0.1,0.1,0.2,0.1,0.3,0.2s0.1,0.1,0.1,0.1s0,0.1,0,0.1c0,0,0,0.1,0,0.2s0,0.1,0,0.2
				c0,0.1,0,0.2,0,0.3s0,0.1,0,0.2s0,0.1-0.1,0.1s-0.1,0-0.1,0c-0.1,0-0.1,0-0.2-0.1s-0.2-0.1-0.4-0.2c-0.2-0.1-0.3-0.1-0.6-0.2
				s-0.5-0.1-0.7-0.1c-0.2,0-0.5,0-0.7,0.1s-0.3,0.1-0.5,0.2c-0.1,0.1-0.2,0.2-0.3,0.4s-0.1,0.3-0.1,0.5c0,0.2,0.1,0.4,0.2,0.6
				s0.3,0.3,0.5,0.4s0.4,0.2,0.6,0.3s0.5,0.2,0.7,0.3s0.5,0.2,0.7,0.3s0.5,0.3,0.6,0.4s0.3,0.4,0.5,0.6S187,575.8,187,576.2z"/>
		</g>
	</g>
	<g id="XMLID_1_">
		<g id="XMLID_6_">
			<path id="XMLID_7_" class="st2" d="M85.9,369c0,0.1-0.1,0.1-0.1,0.2s-0.1,0.1-0.2,0.1s-0.2,0-0.3,0.1s-0.3,0-0.4,0
				c-0.2,0-0.3,0-0.5,0s-0.2,0-0.3-0.1s-0.1-0.1-0.2-0.1s-0.1-0.1-0.1-0.2l-2.4-8.6h0l-2.2,8.6c0,0.1,0,0.1-0.1,0.2
				s-0.1,0.1-0.2,0.1s-0.2,0-0.3,0.1s-0.3,0-0.5,0c-0.2,0-0.4,0-0.5,0s-0.2,0-0.3-0.1s-0.1-0.1-0.2-0.1s-0.1-0.1-0.1-0.2l-3-10.5
				c0-0.1-0.1-0.2-0.1-0.3s0-0.1,0.1-0.2s0.1-0.1,0.2-0.1s0.3,0,0.4,0c0.2,0,0.3,0,0.4,0s0.2,0,0.2,0s0.1,0.1,0.1,0.1s0,0.1,0,0.2
				l2.6,9.5h0l2.4-9.5c0-0.1,0-0.1,0.1-0.2s0.1-0.1,0.1-0.1s0.1,0,0.3-0.1s0.3,0,0.4,0c0.2,0,0.3,0,0.4,0s0.2,0,0.2,0.1
				s0.1,0.1,0.1,0.1s0,0.1,0.1,0.2l2.6,9.5h0l2.5-9.5c0-0.1,0-0.1,0.1-0.2s0.1-0.1,0.1-0.1s0.1,0,0.2-0.1s0.2,0,0.4,0
				c0.2,0,0.3,0,0.4,0s0.2,0,0.2,0.1s0.1,0.1,0.1,0.2s0,0.2,0,0.3L85.9,369z"/>
			<path id="XMLID_9_" class="st2" d="M98.2,365.1c0,0.6-0.1,1.2-0.3,1.8s-0.4,1-0.8,1.4s-0.8,0.7-1.3,0.9s-1.1,0.3-1.8,0.3
				c-0.7,0-1.2-0.1-1.7-0.3s-0.9-0.5-1.2-0.8s-0.6-0.8-0.7-1.3s-0.2-1.1-0.2-1.8c0-0.6,0.1-1.2,0.3-1.8s0.4-1,0.8-1.4
				s0.8-0.7,1.3-0.9s1.1-0.3,1.8-0.3c0.7,0,1.2,0.1,1.7,0.3s0.9,0.5,1.2,0.8s0.6,0.8,0.7,1.3S98.2,364.4,98.2,365.1z M96.7,365.2
				c0-0.4,0-0.8-0.1-1.2c-0.1-0.4-0.2-0.7-0.4-1c-0.2-0.3-0.4-0.5-0.7-0.7c-0.3-0.2-0.7-0.3-1.2-0.3c-0.4,0-0.8,0.1-1.1,0.2
				c-0.3,0.2-0.6,0.4-0.8,0.6c-0.2,0.3-0.4,0.6-0.4,1c-0.1,0.4-0.1,0.8-0.1,1.2c0,0.4,0,0.8,0.1,1.2c0.1,0.4,0.2,0.7,0.4,1
				c0.2,0.3,0.4,0.5,0.7,0.7s0.7,0.3,1.2,0.3c0.4,0,0.8-0.1,1.1-0.2s0.6-0.4,0.8-0.6s0.3-0.6,0.4-1S96.7,365.6,96.7,365.2z"/>
			<path id="XMLID_12_" class="st2" d="M105.1,361.7c0,0.1,0,0.2,0,0.3s0,0.2,0,0.2s0,0.1-0.1,0.1s-0.1,0-0.1,0s-0.1,0-0.2,0
				s-0.1-0.1-0.2-0.1s-0.2-0.1-0.3-0.1s-0.2,0-0.3,0c-0.1,0-0.3,0-0.4,0.1s-0.3,0.2-0.4,0.3s-0.3,0.3-0.5,0.5s-0.4,0.5-0.6,0.8v5.2
				c0,0,0,0.1,0,0.1s-0.1,0.1-0.1,0.1s-0.1,0-0.2,0.1s-0.2,0-0.4,0c-0.1,0-0.3,0-0.4,0s-0.2,0-0.2-0.1s-0.1-0.1-0.1-0.1s0-0.1,0-0.1
				v-7.9c0,0,0-0.1,0-0.1s0.1-0.1,0.1-0.1s0.1,0,0.2-0.1s0.2,0,0.3,0c0.1,0,0.2,0,0.3,0s0.2,0,0.2,0.1s0.1,0.1,0.1,0.1s0,0.1,0,0.1
				v1.2c0.2-0.3,0.4-0.6,0.6-0.8s0.4-0.4,0.5-0.5s0.3-0.2,0.5-0.2s0.3-0.1,0.5-0.1c0.1,0,0.2,0,0.3,0s0.2,0,0.3,0s0.2,0,0.3,0.1
				s0.1,0.1,0.2,0.1s0.1,0.1,0.1,0.1s0,0.1,0,0.1s0,0.1,0,0.2S105.1,361.6,105.1,361.7z"/>
			<path id="XMLID_14_" class="st2" d="M111.3,361.7c0,0.1,0,0.2,0,0.3s0,0.2,0,0.2s0,0.1-0.1,0.1s-0.1,0-0.1,0s-0.1,0-0.2,0
				s-0.1-0.1-0.2-0.1s-0.2-0.1-0.3-0.1s-0.2,0-0.3,0c-0.1,0-0.3,0-0.4,0.1s-0.3,0.2-0.4,0.3s-0.3,0.3-0.5,0.5s-0.4,0.5-0.6,0.8v5.2
				c0,0,0,0.1,0,0.1s-0.1,0.1-0.1,0.1s-0.1,0-0.2,0.1s-0.2,0-0.4,0c-0.1,0-0.3,0-0.4,0s-0.2,0-0.2-0.1s-0.1-0.1-0.1-0.1s0-0.1,0-0.1
				v-7.9c0,0,0-0.1,0-0.1s0.1-0.1,0.1-0.1s0.1,0,0.2-0.1s0.2,0,0.3,0c0.1,0,0.2,0,0.3,0s0.2,0,0.2,0.1s0.1,0.1,0.1,0.1s0,0.1,0,0.1
				v1.2c0.2-0.3,0.4-0.6,0.6-0.8s0.4-0.4,0.5-0.5s0.3-0.2,0.5-0.2s0.3-0.1,0.5-0.1c0.1,0,0.2,0,0.3,0s0.2,0,0.3,0s0.2,0,0.3,0.1
				s0.1,0.1,0.2,0.1s0.1,0.1,0.1,0.1s0,0.1,0,0.1s0,0.1,0,0.2S111.3,361.6,111.3,361.7z"/>
			<path id="XMLID_16_" class="st2" d="M116.6,369.4l-1.1,2.9c0,0.1-0.1,0.2-0.3,0.2s-0.4,0.1-0.7,0.1c-0.2,0-0.3,0-0.4,0
				s-0.2,0-0.2-0.1s-0.1-0.1-0.1-0.1s0-0.1,0-0.2l1.1-2.8c-0.1,0-0.1-0.1-0.1-0.1s-0.1-0.1-0.1-0.2l-2.8-7.6c0-0.1-0.1-0.2-0.1-0.3
				s0-0.1,0.1-0.2s0.1-0.1,0.2-0.1s0.2,0,0.4,0s0.3,0,0.4,0s0.2,0,0.2,0s0.1,0.1,0.1,0.1s0.1,0.1,0.1,0.2l2.3,6.3h0l2.2-6.4
				c0-0.1,0.1-0.2,0.1-0.2s0.1-0.1,0.2-0.1s0.2,0,0.4,0c0.2,0,0.3,0,0.4,0s0.2,0,0.2,0.1s0.1,0.1,0.1,0.2s0,0.2-0.1,0.3L116.6,369.4
				z"/>
		</g>
	</g>
</g>
<g id="XMLID_80_">
</g>
<g id="XMLID_81_">
</g>
<g id="XMLID_82_">
</g>
<g id="XMLID_83_">
</g>
<g id="XMLID_84_">
</g>
<g id="XMLID_85_">
</g>
</svg>
